<?xml version="1.0" encoding="utf-8"?>
<!-- Generator: Adobe Illustrator 18.0.0, SVG Export Plug-In . SVG Version: 6.00 Build 0)  -->
<!DOCTYPE svg PUBLIC "-//W3C//DTD SVG 1.1//EN" "http://www.w3.org/Graphics/SVG/1.1/DTD/svg11.dtd">
<svg version="1.1" id="Слой_1" xmlns="http://www.w3.org/2000/svg" xmlns:xlink="http://www.w3.org/1999/xlink" x="0px" y="0px"
	 viewBox="82.8 0 586.9 1024" enable-background="new 82.8 0 586.9 1024" xml:space="preserve">
<path fill="#000000"      d="
	M120,978.3c0,0-23,7.9-23,13.4c0,0-21.2,17-11.5,23.1c0,0,18.2-5.5,23.7-9.7c0,0,0.6,15.8,10.9,12.1c0,0,13.3-14,17.6-19.1
	c0,0,59.5,5.1,76.4,0c0,0-11.5,19.7,21.2,4l12.1-3.8c0,0,34,6.5,41.9,0.2h9.7c0,0,17.6,25.7,37,5.1c0,0,24.3,0.9,26.7-5.4
	c0,0,18.1,8.2,21.8,5.8c0,0,12.2,26.7,23.1,6c0,0,11.5-1.8,15.8-9.1l22.5,1.8c0,0,23.7,8.5,30.9,3.6c0,0,15.2,24.9,29.1,5.5l17-1.8
	c0,0,30.9,4.2,35.8,1.2c0,0,17.6,29.7,29.1-1.2c0,0,20-1.8,23.7-3.6c0,0,38.8,15.2,43.1,3c0,0-6.6-66.5-15.3-75.3
	c0,0-14.6-151.1-27.3-176.5l3.9-9.8c0,0,53.6-80.9,44.9-148.2c0,0,12.2-52.6,4.7-73.4c0,0,7.1-17-4.3-28.4c0,0-0.5-32.6-3.3-37.3
	c0,0,5.7-20.3,0.9-26c0,0,4.3-76.1-37.8-107.8c0,0-35-35.5-68.1-42.1c0,0-5.7-15.1-10.9-16.1c0,0-12.3-26-23.6-27.4
	c0,0,5.2-15.1,5.2-16.5c0-1.4,5.7-5.7,6.6-8c0,0,7.1-4.7,7.1-8.5c0,0,36.9-10.4,43-20.3c0,0,37.3-22.2,38.3-32.6l25.1-35
	c0,0,7.1-8.5,19.4-8c0,0,16.5-4.7-1.9-16.1c0,0-26.5-11.3-43.5,0c0,0-19.9,8.5-34.5,10.9c0,0-33.6-1.4-43,6.1c0,0-7.1-6.6-12.3-5.2
	c0,0-1.9-19.1-6.1-16.9c0,0-2.4-15.3-6.1-13.9c0,0-2.8-9.5-5.7-10.4c0,0-5.2-9.9-8.5-9.9c0,0-0.9-8.5-16.5-17.5
	c0,0-9.9-7.6-13.2-6.1c0,0-4.3-9-8.5-10.4c0,0-11.3-14.2-24.1-12.3c0,0-10.4-1.9-13.7-2.8c0,0-13.7-7.6-34.5,2.8l-6.2,0.5
	c0,0-8-0.5-17,9.9c0,0-16.6,6.6-20.8,14.7c0,0-10.4,5.7-10.4,10.9c0,0-29.3,26.5-33.6,43.5c0,0-6.1,12.8-4.7,16.5
	c0,0-7.6,6.1-6.6,9.9c0,0-37.8,0-54.4,4.3c0,0-24.6,5.7-54.4-0.9c0,0-19.9-14.2-26-7.1c0,0-4.7,7.6,9,21.7c0,0,41.1,62.4,91.7,70
	c0,0,28.8,9.5,33.1,8.5c0,0,7.1,12.3,9.9,12.8c0,0,2.4,10.9,5.7,12.3c0,0,0.9,17,3.8,19.9c2.8,2.8-9.9,10.4-17.5,27.4l-1.4,2.8
	c0,0-76.6,30.7-94.1,61.5c0,0-12.8,11.3-15.6,25.1c0,0-10.9,20.8-15.1,52c0,0-15.1,25.1-18,43.5c0,0-17.5,33.2-17.5,44.5
	c0,0-12.8,36.8-6.1,42c0,0,15.1,20.3,15.1,26.5c0,0,6.1,19.4,9.5,25.5c0,0,5.7,62.9,13.2,85.6c0,0,0.5,55.8,17.5,73.3
	c0,0-8.5,22.2-1.4,32.2c0,0-16.1,29.8-13.2,54.4c0,0-3.3,28.4,0.9,40.2c0,0,6.1,21.3-0.5,31.7c0,0-25.1,26-24.1,31.7
	c0,0-10.4,5.7-10.4,12.3C131.1,969.7,120.2,973.7,120,978.3z"/>
</svg>
